# xmcd
#
# Track frame offsets:
#	150
#	23394
#	43794
#	62244
#	78894
#	98169
#	116094
#	138894
#	154044
#	172719
#	192744
#	210219
#	227844
#	247794
#	281319
#	301044
#	320469
#
# Disc length: 4518 seconds
#
# Revision: 0
# Processed by: cddbd v1.5.1PL2 Copyright (c) Steve Scherf et al.
# Submitted via: EasyCDDAExtractor 8.2.3.1
#
DISCID=cc11a411
DTITLE=Various Artist - Ravintola Pingviini, Vantaa 12-01-2006
DYEAR=1900
DGENRE=
TTITLE0=Verenpisara - 01 - Syntyminen
TTITLE1=Verenpisara - 02 - Irtileikattu
TTITLE2=Verenpisara - 03 - Viimeinen Kosketus
TTITLE3=Verenpisara - 04 - Rytmi
TTITLE4=Verenpisara - 05 - Poissa
TTITLE5=Verenpisara - 06 - Juomarahat
TTITLE6=Verenpisara - 07 - Happosadetta
TTITLE7=Verenpisara - 08 - Harmaita Sävyjä
TTITLE8=Verenpisara - 09 - Helpoin Tie
TTITLE9=Verenpisara - 10 - Arvetkin Kauneuspilkuiksi
TTITLE10=Verenpisara - 11 - Murheen Juuret
TTITLE11=Verenpisara - 12 - Kun Uni Kuolee
TTITLE12=Verenpisara - 13 - Kärsimysnäytelmä
TTITLE13=Verenpisara - 14 - Aamunodottaja
TTITLE14=Verenpisara - 15 - Harvoin
TTITLE15=Verenpisara - 16 - Me Tapoimme Tunteen
TTITLE16=17 - Aamuisin Kun Sataa
EXTD=
EXTT0=
EXTT1=
EXTT2=
EXTT3=
EXTT4=
EXTT5=
EXTT6=
EXTT7=
EXTT8=
EXTT9=
EXTT10=
EXTT11=
EXTT12=
EXTT13=
EXTT14=
EXTT15=
EXTT16=
PLAYORDER=
